<?xml version="1.0" encoding="UTF-8" standalone="no"?>
<!-- Created with Inkscape (http://www.inkscape.org/) -->

<svg
   width="50.761497"
   height="50.761497"
   viewBox="0 0 13.430645 13.430647"
   version="1.1"
   id="svg864"
   sodipodi:docname="tower_rare.svg"
   inkscape:version="1.1.2 (0a00cf5339, 2022-02-04)"
   inkscape:export-filename="/csse/users/sre114/SENG201/intellij/team-56/src/main/resources/images/tower_rare.png"
   inkscape:export-xdpi="96"
   inkscape:export-ydpi="96"
   xmlns:inkscape="http://www.inkscape.org/namespaces/inkscape"
   xmlns:sodipodi="http://sodipodi.sourceforge.net/DTD/sodipodi-0.dtd"
   xmlns:xlink="http://www.w3.org/1999/xlink"
   xmlns="http://www.w3.org/2000/svg"
   xmlns:svg="http://www.w3.org/2000/svg">
  <sodipodi:namedview
     id="namedview866"
     pagecolor="#ffffff"
     bordercolor="#666666"
     borderopacity="1.0"
     inkscape:pageshadow="2"
     inkscape:pageopacity="0.0"
     inkscape:pagecheckerboard="0"
     inkscape:document-units="mm"
     showgrid="false"
     units="px"
     inkscape:zoom="13.583333"
     inkscape:cx="9.7177916"
     inkscape:cy="22.711657"
     inkscape:window-width="1920"
     inkscape:window-height="1025"
     inkscape:window-x="0"
     inkscape:window-y="0"
     inkscape:window-maximized="1"
     inkscape:current-layer="layer1"
     inkscape:object-nodes="true"
     inkscape:object-paths="false"
     inkscape:snap-bbox="false"
     inkscape:bbox-paths="false"
     inkscape:snap-intersection-paths="false"
     inkscape:snap-others="false"
     inkscape:snap-smooth-nodes="false"
     fit-margin-top="0"
     fit-margin-left="0"
     fit-margin-right="0"
     fit-margin-bottom="0" />
  <defs
     id="defs861">
    <pattern
       inkscape:collect="always"
       xlink:href="#pattern4142"
       id="pattern17329"
       patternTransform="scale(1.1008876,1.3681014)" />
    <linearGradient
       id="linearGradient15061"
       inkscape:swatch="solid">
      <stop
         style="stop-color:#000000;stop-opacity:0.0349146;"
         offset="0"
         id="stop15059" />
    </linearGradient>
    <pattern
       inkscape:collect="always"
       xlink:href="#pattern490"
       id="pattern13109"
       patternTransform="matrix(0.00374745,-0.12330778,0.72423684,0.0220101,1.7649693,2.1084708)" />
    <pattern
       inkscape:collect="always"
       xlink:href="#Strips1_1"
       id="pattern8886"
       patternTransform="matrix(5.6026356e-4,-0.11932,0.23169659,0.00108793,1.8036294,1.1862802)" />
    <pattern
       inkscape:collect="always"
       patternUnits="userSpaceOnUse"
       width="2"
       height="1"
       patternTransform="translate(0,0) scale(10,10)"
       id="Strips1_1"
       inkscape:stockid="Stripes 1:1"
       inkscape:isstock="true">
      <rect
         style="fill:#564e49;stroke:none"
         x="0"
         y="-0.5"
         width="1"
         height="2"
         id="rect3005" />
    </pattern>
    <pattern
       inkscape:collect="always"
       xlink:href="#Checkerboard"
       id="pattern5868"
       patternTransform="matrix(10.543301,-0.06792624,0.00603123,0.93614687,0.29458188,0.17923667)" />
    <pattern
       inkscape:collect="always"
       patternUnits="userSpaceOnUse"
       width="2"
       height="2"
       patternTransform="translate(0,0) scale(10,10)"
       id="Checkerboard"
       inkscape:stockid="Checkerboard"
       inkscape:isstock="true">
      <rect
         style="fill:#564e49;stroke:none"
         x="0"
         y="0"
         width="1"
         height="1"
         id="rect3080" />
      <rect
         style="fill:#564e49;stroke:none"
         x="1"
         y="1"
         width="1"
         height="1"
         id="rect3082" />
    </pattern>
    <pattern
       inkscape:collect="always"
       patternUnits="userSpaceOnUse"
       width="2"
       height="2"
       patternTransform="translate(0,0) scale(10,10)"
       inkscape:stockid="Checkerboard"
       inkscape:isstock="true"
       id="pattern4142">
      <rect
         style="fill:#564e49;stroke:none"
         x="0"
         y="0"
         width="1"
         height="1"
         id="rect19929" />
      <rect
         style="fill:#564e49;stroke:none"
         x="1"
         y="1"
         width="1"
         height="1"
         id="rect19931" />
    </pattern>
    <pattern
       inkscape:collect="always"
       patternUnits="userSpaceOnUse"
       width="2"
       height="1"
       patternTransform="translate(0,0) scale(10,10)"
       inkscape:stockid="Stripes 1:1"
       inkscape:isstock="true"
       id="pattern490">
      <rect
         style="fill:#564e49;stroke:none"
         x="0"
         y="-0.5"
         width="1"
         height="2"
         id="rect22085" />
    </pattern>
  </defs>
  <g
     inkscape:label="Layer 1"
     inkscape:groupmode="layer"
     id="layer1"
     transform="translate(-1.222177,-1.222177)">
    <rect
       style="fill:#808080;fill-opacity:1;stroke:#5d5d5d;stroke-opacity:1"
       id="rect947"
       width="12.430646"
       height="12.430646"
       x="1.722177"
       y="1.722177" />
    <rect
       style="fill:#007fff;fill-opacity:1;stroke-width:0.147774"
       id="rect1121"
       width="1.2069063"
       height="11.488953"
       x="2.1691351"
       y="2.1883087" />
    <rect
       style="fill:#007fff;fill-opacity:1;stroke-width:0.266276"
       id="rect1225"
       width="10.416168"
       height="1.2333901"
       x="3.2440443"
       y="12.443871" />
    <rect
       style="fill:#a05a2c;stroke-width:0.25139"
       id="rect1449"
       width="10.339363"
       height="3.5517249"
       x="3.3208485"
       y="8.8921452" />
    <rect
       style="fill:#a05a2c;stroke-width:0.264583"
       id="rect1553"
       width="0.90571588"
       height="0.94855708"
       x="3.6655154"
       y="7.9921741" />
    <rect
       style="fill:#a05a2c;stroke-width:0.264583"
       id="rect1553-3"
       width="0.90571588"
       height="0.94855708"
       x="5.3678226"
       y="7.9921741" />
    <rect
       style="fill:#a05a2c;stroke-width:0.264583"
       id="rect1553-3-6"
       width="0.90571588"
       height="0.94855708"
       x="12.329383"
       y="7.9921741" />
    <rect
       style="fill:#a05a2c;stroke-width:0.264583"
       id="rect1553-3-6-7"
       width="0.90571588"
       height="0.94855708"
       x="10.735443"
       y="7.9921741" />
    <rect
       style="fill:#a05a2c;stroke-width:0.249196"
       id="rect1738"
       width="2.5627959"
       height="4.3616915"
       x="7.2091322"
       y="4.5651498" />
    <path
       style="fill:none;stroke:#373737;stroke-width:0.100117;stroke-linecap:butt;stroke-linejoin:miter;stroke-miterlimit:4;stroke-dasharray:none;stroke-opacity:1"
       d="m 7.7754964,5.4453049 c 0,0 0.1417668,-0.8250041 0.7201266,-0.7575608 0.5783595,0.067442 0.6959854,0.7575608 0.6959854,0.7575608"
       id="path4824" />
    <path
       style="fill:url(#pattern5868);fill-opacity:1;stroke:#373737;stroke-width:0.0278247;stroke-miterlimit:4;stroke-dasharray:none;stroke-opacity:1"
       d="m 29.716259,20.190184 c 0.56151,-1.916659 1.839005,-2.754552 3.223806,-2.077032 0.669217,0.327417 1.255913,1.279934 1.50109,2.187461 l 0.07458,0.276074 H 32.05938 29.603024 Z"
       id="path5573"
       transform="scale(0.26458333)"
       sodipodi:nodetypes="ssscccs" />
    <rect
       style="fill:url(#pattern13109);fill-opacity:1;stroke:#373737;stroke-width:0.0506173;stroke-miterlimit:4;stroke-dasharray:none;stroke-opacity:1"
       id="rect8672"
       width="0.9441185"
       height="1.7597476"
       x="7.0388846"
       y="7.2068233"
       transform="matrix(0.97575467,-0.21886713,0,1,0,0)" />
    <rect
       style="fill:url(#pattern8886);fill-opacity:1;stroke:#373737;stroke-width:0.0511687;stroke-miterlimit:4;stroke-dasharray:none;stroke-opacity:1"
       id="rect8672-5"
       width="0.96479857"
       height="1.7597476"
       x="9.6263361"
       y="2.5851145"
       transform="matrix(0.95483972,0.29712138,0,1,0,0)" />
    <path
       style="fill:#ffffff;stroke:#2e2e2e;stroke-width:0.0139124;stroke-miterlimit:4;stroke-dasharray:none;stroke-opacity:1"
       d="M 12.809816,21.018405 V 8.4294479 h 8.658774 8.658773 l -0.132354,0.2024539 c -0.07279,0.1113497 -0.593325,0.8434376 -1.156733,1.6268622 l -1.024379,1.424408 -1.209612,2.874155 c -0.665287,1.580786 -1.200407,2.883321 -1.189157,2.894522 0.01125,0.0112 0.426283,0.06099 0.922295,0.110635 l 0.901841,0.09027 v 1.671112 1.671111 l -0.423313,0.09113 c -0.232822,0.05012 -0.547546,0.122929 -0.699387,0.161793 l -0.276073,0.07066 v 3.458688 3.458687 l 0.202454,-0.0459 c 0.111349,-0.02524 0.389445,-0.09213 0.617988,-0.148642 0.228544,-0.05651 0.452164,-0.102743 0.496933,-0.102743 0.05804,0 0.0814,0.8133 0.0814,2.834356 v 2.834356 h -1.728705 -1.728704 l -0.01976,-1.711656 -0.01976,-1.711657 -1.748466,-0.01974 -1.748466,-0.01974 v 1.731394 1.731394 h -1.472393 -1.472393 v -1.730061 -1.730062 h -1.730061 -1.730061 v 1.730062 1.730061 h -0.515338 -0.515337 z"
       id="path13347"
       transform="scale(0.26458333)" />
    <path
       style="fill:#00aad4;stroke:#373737;stroke-width:0.0139124;stroke-miterlimit:4;stroke-dasharray:none;stroke-opacity:1"
       d="m 36.957055,30.846626 c 0,-1.518405 0.02485,-2.760314 0.05522,-2.759796 0.03037,5.15e-4 0.313225,0.08334 0.628571,0.184049 0.315347,0.100709 0.605224,0.183109 0.644172,0.183109 0.04433,0 0.07082,-1.29011 0.07082,-3.449833 v -3.449834 l -0.699386,-0.206535 -0.699387,-0.206535 v -1.748203 -1.748204 l 0.276074,-0.04192 c 0.15184,-0.02306 0.557614,-0.07837 0.901719,-0.122914 0.344104,-0.04454 0.632105,-0.08745 0.640001,-0.09535 0.0079,-0.0079 -0.651421,-1.487706 -1.46515,-3.288465 L 35.830191,10.822086 34.92247,9.6257669 34.01475,8.4294479 h 8.759496 8.759496 V 21.018405 33.607362 H 50.797546 50.06135 v -1.731394 -1.731394 l -1.748467,0.01974 -1.748466,0.01974 -0.01976,1.711657 -0.01976,1.711656 h -1.25018 -1.250177 v -1.730061 -1.730062 h -1.730061 -1.730062 v 1.730062 1.730061 h -1.803681 -1.803681 z"
       id="path13386"
       transform="scale(0.26458333)" />
    <path
       style="fill:#a05a2c;stroke:#373737;stroke-width:0.00347809;stroke-miterlimit:4;stroke-dasharray:none;stroke-opacity:1"
       d="m 26.06135,27.221777 v -0.223339 l 0.556748,-0.106637 c 0.306212,-0.05865 0.571503,-0.110704 0.589535,-0.115674 0.03036,-0.0084 0.0324,0.0078 0.02761,0.21762 l -0.0052,0.226656 -0.174846,0.03284 c -0.09617,0.01806 -0.359126,0.06862 -0.584356,0.112356 l -0.409509,0.07952 z"
       id="path13655"
       transform="scale(0.26458333)" />
    <path
       style="fill:#a05a2c;stroke:#373737;stroke-width:0.00347809;stroke-miterlimit:4;stroke-dasharray:none;stroke-opacity:1"
       d="m 26.065373,26.28901 0.0052,-0.226108 0.584356,-0.112407 0.584356,-0.112407 v 0.222987 0.222988 l -0.556749,0.106573 c -0.306211,0.05861 -0.571502,0.110602 -0.589535,0.115527 -0.03035,0.0083 -0.0324,-0.0079 -0.02761,-0.217153 z"
       id="path13694"
       transform="scale(0.26458333)" />
    <path
       style="fill:#a05a2c;stroke:#373737;stroke-width:0.00347809;stroke-miterlimit:4;stroke-dasharray:none;stroke-opacity:1"
       d="m 26.06135,25.354756 c 0,-0.211728 0.0013,-0.219191 0.04141,-0.228892 0.07095,-0.01718 1.100391,-0.214821 1.118936,-0.214821 0.01018,0 0.01757,0.09292 0.01757,0.220859 0,0.121472 -0.0021,0.220874 -0.0046,0.220893 -0.0025,1.8e-5 -0.26135,0.0497 -0.575154,0.110395 -0.313803,0.0607 -0.576764,0.110377 -0.584356,0.110396 -0.0076,1.8e-5 -0.0138,-0.09845 -0.0138,-0.21883 z"
       id="path13733"
       transform="scale(0.26458333)" />
    <path
       style="fill:#a05a2c;stroke:#373737;stroke-width:0.00347809;stroke-miterlimit:4;stroke-dasharray:none;stroke-opacity:1"
       d="m 26.06135,24.41411 c 0,-0.127944 0.0074,-0.220858 0.01757,-0.220858 0.01866,0 1.048266,-0.197704 1.11952,-0.214968 l 0.042,-0.01018 -0.0052,0.225899 -0.0052,0.225899 -0.552147,0.107321 c -0.303681,0.05903 -0.566641,0.107415 -0.584356,0.107531 -0.0289,1.89e-4 -0.03221,-0.0225 -0.03221,-0.220649 z"
       id="path13811"
       transform="scale(0.26458333)" />
    <path
       style="fill:#a05a2c;stroke:#373737;stroke-width:0.00347809;stroke-miterlimit:4;stroke-dasharray:none;stroke-opacity:1"
       d="m 26.065367,23.491808 0.0052,-0.227302 0.257669,-0.04977 c 0.141718,-0.02737 0.404678,-0.07803 0.584356,-0.112574 l 0.326687,-0.0628 v 0.223403 0.223402 l -0.565951,0.107966 c -0.311273,0.05938 -0.576567,0.111795 -0.589541,0.116474 -0.01854,0.0067 -0.02248,-0.04012 -0.01841,-0.218795 z"
       id="path13850"
       transform="scale(0.26458333)" />
    <path
       style="fill:#a05a2c;stroke:#373737;stroke-width:0.00347809;stroke-miterlimit:4;stroke-dasharray:none;stroke-opacity:1"
       d="m 26.06135,22.555565 c 0,-0.213661 0.0013,-0.220795 0.04141,-0.22977 0.109305,-0.02445 1.09567,-0.212298 1.114727,-0.212298 0.01555,0 0.02178,0.0631 0.02178,0.220859 0,0.121472 -0.0039,0.220859 -0.0087,0.220859 -0.0048,0 -0.264545,0.04969 -0.577216,0.110429 -0.31267,0.06074 -0.573775,0.11043 -0.580233,0.11043 -0.0065,0 -0.01174,-0.09923 -0.01174,-0.220509 z"
       id="path13889"
       transform="scale(0.26458333)" />
    <path
       style="fill:#a05a2c;stroke:#373737;stroke-width:0.00347809;stroke-miterlimit:4;stroke-dasharray:none;stroke-opacity:1"
       d="m 26.06145,21.667178 1.01e-4,-0.170245 0.584255,-0.130073 0.584255,-0.130072 0.0053,0.183083 c 0.0029,0.100696 6.9e-4,0.187665 -0.0049,0.193265 -0.0112,0.0112 -1.085036,0.222347 -1.136864,0.223544 -0.02841,6.56e-4 -0.0322,-0.01931 -0.03211,-0.169502 z"
       id="path14006"
       transform="scale(0.26458333)" />
    <path
       style="fill:#a05a2c;stroke:#373737;stroke-width:0.00347809;stroke-miterlimit:4;stroke-dasharray:none;stroke-opacity:1"
       d="m 37.730061,22.232848 c -0.197392,-0.06386 -0.456211,-0.146499 -0.575153,-0.183649 l -0.216258,-0.06755 v -0.216593 -0.216594 l 0.588946,0.185889 0.588945,0.185889 1.2e-5,0.216258 c 6e-6,0.118942 -0.0062,0.215401 -0.01379,0.214353 -0.0076,-10e-4 -0.175307,-0.05415 -0.3727,-0.118008 z"
       id="path14045"
       transform="scale(0.26458333)" />
    <path
       style="fill:#a05a2c;stroke:#373737;stroke-width:0.00347809;stroke-miterlimit:4;stroke-dasharray:none;stroke-opacity:1"
       d="m 37.730061,23.134913 c -0.197392,-0.06392 -0.456211,-0.146636 -0.575153,-0.183817 l -0.216258,-0.0676 v -0.216594 -0.216594 l 0.588946,0.18589 0.588945,0.185889 1.2e-5,0.216258 c 6e-6,0.118941 -0.0062,0.215476 -0.01379,0.21452 -0.0076,-9.55e-4 -0.175307,-0.05403 -0.3727,-0.117951 z"
       id="path14084"
       transform="scale(0.26458333)" />
    <path
       style="fill:#a05a2c;stroke:#373737;stroke-width:0.00347809;stroke-miterlimit:4;stroke-dasharray:none;stroke-opacity:1"
       d="m 37.785276,24.054935 c -0.167024,-0.05396 -0.425843,-0.136683 -0.575153,-0.183821 l -0.271473,-0.08571 v -0.216823 -0.216823 l 0.588818,0.186082 0.588817,0.186082 1.4e-4,0.216258 c 7.7e-5,0.118942 -0.0061,0.215495 -0.01366,0.214562 -0.0076,-9.33e-4 -0.15046,-0.04585 -0.317485,-0.09981 z"
       id="path14123"
       transform="scale(0.26458333)" />
    <path
       style="fill:#a05a2c;stroke:#373737;stroke-width:0.00347809;stroke-miterlimit:4;stroke-dasharray:none;stroke-opacity:1"
       d="m 37.785276,24.956775 c -0.167024,-0.05396 -0.425843,-0.136682 -0.575153,-0.18382 l -0.271473,-0.08571 v -0.21677 -0.216769 l 0.588756,0.186028 0.588756,0.186029 2.01e-4,0.216258 c 1.11e-4,0.118941 -0.006,0.215494 -0.0136,0.214561 -0.0076,-9.33e-4 -0.15046,-0.04585 -0.317485,-0.09981 z"
       id="path14162"
       transform="scale(0.26458333)" />
    <path
       style="fill:#a05a2c;stroke:#373737;stroke-width:0.00347809;stroke-miterlimit:4;stroke-dasharray:none;stroke-opacity:1"
       d="m 37.785276,25.858616 c -0.167024,-0.05396 -0.425843,-0.136683 -0.575153,-0.183821 l -0.271473,-0.08571 v -0.216468 -0.216469 l 0.588761,0.185728 0.588761,0.185727 1.96e-4,0.216258 c 1.08e-4,0.118942 -0.006,0.215495 -0.01361,0.214562 -0.0076,-9.33e-4 -0.15046,-0.04585 -0.317485,-0.09981 z"
       id="path14201"
       transform="scale(0.26458333)" />
    <path
       style="fill:#a05a2c;stroke:#373737;stroke-width:0.00347809;stroke-miterlimit:4;stroke-dasharray:none;stroke-opacity:1"
       d="m 37.785276,26.760456 c -0.167024,-0.05396 -0.425843,-0.136682 -0.575153,-0.18382 L 36.93865,26.49093 v -0.210189 c 0,-0.115604 0.0062,-0.210508 0.0138,-0.210898 0.0076,-3.91e-4 0.27256,0.08036 0.588818,0.179447 l 0.575014,0.180158 1.4e-4,0.216258 c 7.6e-5,0.118941 -0.0061,0.215494 -0.01366,0.214561 -0.0076,-9.33e-4 -0.15046,-0.04585 -0.317485,-0.09981 z"
       id="path14240"
       transform="scale(0.26458333)" />
    <path
       style="fill:#a05a2c;stroke:#373737;stroke-width:0.00347809;stroke-miterlimit:4;stroke-dasharray:none;stroke-opacity:1"
       d="m 37.785276,27.662297 c -0.167024,-0.05396 -0.425843,-0.136683 -0.575153,-0.183821 L 36.93865,27.39277 v -0.210189 c 0,-0.115603 0.0062,-0.210508 0.0138,-0.210898 0.0076,-3.9e-4 0.27256,0.08036 0.588818,0.179448 l 0.575014,0.180157 1.4e-4,0.216258 c 7.6e-5,0.118942 -0.0061,0.215495 -0.01366,0.214562 -0.0076,-9.33e-4 -0.15046,-0.04585 -0.317485,-0.09981 z"
       id="path14318"
       transform="scale(0.26458333)" />
    <path
       style="fill:#00ccff;fill-opacity:1;stroke:#2e2e2e;stroke-width:0.0139124;stroke-miterlimit:4;stroke-dasharray:none;stroke-opacity:1"
       d="M 12.883436,21.018405 V 8.5030675 h 8.539877 c 4.696932,0 8.539877,0.019536 8.539877,0.043414 0,0.023878 -0.492858,0.731836 -1.095241,1.5732405 l -1.095241,1.529827 -1.155745,2.751913 c -0.63566,1.513551 -1.161513,2.833858 -1.168562,2.934013 -0.0139,0.197417 -0.09094,0.177898 1.332134,0.337489 l 0.387897,0.0435 -0.0198,1.625124 -0.0198,1.625123 -0.662576,0.156222 -0.662577,0.156222 -0.01912,3.518985 c -0.01809,3.329808 -0.01216,3.516846 0.110429,3.479175 0.2375,-0.07298 1.085313,-0.262853 1.178632,-0.263957 0.072,-8.54e-4 0.09202,0.599558 0.09202,2.759648 v 2.760736 H 25.519848 23.874052 L 23.82712,33.03681 c -0.02581,-0.273313 -0.04717,-1.035276 -0.04745,-1.693252 l -5.24e-4,-1.196319 H 22.53872 c -0.682235,0 -1.493891,-0.02143 -1.803681,-0.04761 l -0.563255,-0.04761 v 1.740864 1.740864 H 18.773006 17.374233 V 31.803681 30.07362 h -1.803681 -1.803681 v 1.730061 1.730061 h -0.441718 -0.441717 z"
       id="path22615"
       transform="scale(0.26458333)" />
    <path
       style="fill:#00ccff;fill-opacity:1;stroke:#2e2e2e;stroke-width:0.0139124;stroke-miterlimit:4;stroke-dasharray:none;stroke-opacity:1"
       d="m 37.030675,30.83804 c 0,-2.532065 0.0078,-2.693504 0.128834,-2.659457 0.796076,0.223967 1.124992,0.297653 1.162267,0.260377 0.02448,-0.02448 0.05044,-1.592314 0.05768,-3.484082 l 0.01318,-3.439578 -0.662577,-0.194075 -0.662576,-0.194077 -0.01975,-1.707224 -0.01975,-1.707225 0.240612,-0.03949 c 0.333517,-0.05473 1.375834,-0.18855 1.468643,-0.18855 0.136474,0 0.0056,-0.320598 -1.441631,-3.530801 L 35.870428,10.792521 35.076532,9.739819 C 34.639889,9.1608327 34.250876,8.6457055 34.212058,8.595092 34.155688,8.521594 35.884783,8.503068 42.800802,8.503068 h 8.659321 v 12.515337 12.515337 h -0.662577 -0.662577 v -1.688906 c 0,-0.928899 -0.02485,-1.702415 -0.05521,-1.718925 -0.03037,-0.01651 -0.842025,-0.01429 -1.803681,0.0049 l -1.748467,0.03494 -5.15e-4,1.187051 c -2.94e-4,0.652879 -0.02164,1.410671 -0.04746,1.683984 l -0.04693,0.496933 h -1.165911 -1.165912 l -0.01976,-1.711657 -0.01976,-1.711656 H 42.294492 40.52762 l -0.01976,1.711656 -0.01977,1.711654 h -1.728705 -1.728704 z"
       id="path22654"
       transform="scale(0.26458333)" />
    <rect
       style="fill:#502d16;fill-opacity:1;stroke:#2e2e2e;stroke-width:0.0594051;stroke-miterlimit:4;stroke-dasharray:none;stroke-opacity:1"
       id="rect22919"
       width="1.2752559"
       height="2.4079413"
       x="7.1142712"
       y="10.010929" />
    <rect
       style="fill:#502d16;fill-opacity:1;stroke:#2e2e2e;stroke-width:0.0623733;stroke-miterlimit:4;stroke-dasharray:none;stroke-opacity:1"
       id="rect22919-2"
       width="1.4131361"
       height="2.3955679"
       x="8.4388313"
       y="10.017116" />
    <path
       style="fill:none;stroke:#000000;stroke-width:0.0882173;stroke-linecap:butt;stroke-linejoin:miter;stroke-miterlimit:4;stroke-dasharray:none;stroke-opacity:1"
       d="m 6.9910446,10.006577 c 0,0 0.8146169,-0.8090893 1.5400106,-0.8067539 0.7253937,0.00233 1.4291887,0.8067539 1.4291887,0.8067539"
       id="path23096" />
    <path
       style="fill:#808080;fill-opacity:1;stroke:#2e2e2e;stroke-width:0.00663375;stroke-miterlimit:4;stroke-dasharray:none;stroke-opacity:1"
       d="m 7.2699529,9.8220473 c 0.4676575,-0.370841 0.9301982,-0.5794862 1.2846495,-0.5794862 0.1873212,0 0.4769926,0.099877 0.7216195,0.2488094 0.2071938,0.1261431 0.6020739,0.4371018 0.6020739,0.4741191 0,0.00976 -0.610725,0.017256 -1.4054971,0.017256 H 7.0673012 Z"
       id="path23295" />
  </g>
  <g
     inkscape:groupmode="layer"
     id="layer3"
     inkscape:label="Layer 2"
     transform="translate(-1.222177,-1.222177)">
    <rect
       style="fill:#ffffff;fill-opacity:1;stroke:none;stroke-width:0.0499999;stroke-miterlimit:4;stroke-dasharray:none;stroke-opacity:1"
       id="rect15440"
       width="1.4021554"
       height="1.745446"
       x="7.7894526"
       y="5.4596066" />
    <rect
       style="fill:#ffffff;fill-opacity:1;stroke:#2e2e2e;stroke-width:0.0387861;stroke-miterlimit:4;stroke-dasharray:none;stroke-opacity:1"
       id="rect15936"
       width="0.4867501"
       height="0.77216899"
       x="8.2175436"
       y="6.4495978" />
    <ellipse
       style="fill:#ffffff;fill-opacity:1;stroke:#2e2e2e;stroke-width:0.0499999;stroke-miterlimit:4;stroke-dasharray:none;stroke-opacity:1"
       id="path16062"
       ry="0.2588903"
       rx="0.22783852"
       cy="6.015131"
       cx="8.5205412" />
    <g
       id="g16635"
       transform="translate(-0.04698523,0.08375654)">
      <path
         style="fill:none;stroke:#000000;stroke-width:0.045;stroke-linecap:butt;stroke-linejoin:miter;stroke-miterlimit:4;stroke-dasharray:none;stroke-opacity:1"
         d="m 8.5299466,6.0796756 c 0.00538,-0.015798 0.00518,-0.034587 0.014547,-0.048648 0.019235,-0.028852 0.1262656,-0.045471 0.1586513,-0.029279 0.020196,0.010097 -0.00527,-3.968e-4 0.00481,0.00962 0.00257,0.00254 0.00713,0.00225 0.00968,0.00481 0.00934,0.00934 0.012107,0.0279 0.019479,0.038957 -5.027e-4,0.00966 0.00713,0.00233 0.00968,0.00487 0.00739,0.00739 0.00631,0.013861 0.014549,0.019357 0.036163,0.024109 0.050554,0.025694 0.092523,0.034087 0.018357,0.00367 0.034354,0.00974 0.053566,0.00974 0.019169,0 0.057056,0.00625 0.073044,-0.00974 0.011356,-0.011353 0.01461,-0.034023 0.01461,-0.048696 0,-0.060587 -0.023072,-0.1068125 -0.082784,-0.1217409 -0.00551,-0.00138 -0.032336,-0.011472 -0.038022,-0.00487 -0.00262,0.00304 0,0.024199 0,0.028741 0,0.00683 -0.012134,0.029005 -0.00481,0.037255 0.00172,0.00193 0.00857,0.015835 0.012782,0.018137 0.010745,0.00587 0.02793,0.007 0.035888,0.00106 0.00167,-0.00124 0,-0.016957 0,-0.018857"
         id="path16524" />
      <path
         style="fill:none;stroke:#000000;stroke-width:0.0450934;stroke-linecap:butt;stroke-linejoin:miter;stroke-miterlimit:4;stroke-dasharray:none;stroke-opacity:1"
         d="m 8.5322595,6.0744412 c -0.00539,-0.015831 -0.00519,-0.034659 -0.014577,-0.048749 -0.019275,-0.028912 -0.1265277,-0.045565 -0.1589806,-0.02934 -0.020238,0.010118 0.00528,-3.975e-4 -0.00482,0.00964 -0.00258,0.00255 -0.00714,0.00225 -0.0097,0.00482 -0.00936,0.00936 -0.012132,0.027958 -0.019519,0.039038 5.038e-4,0.00968 -0.00714,0.00233 -0.0097,0.00488 -0.00741,0.00741 -0.00632,0.01389 -0.014579,0.019397 -0.036238,0.024159 -0.050659,0.025747 -0.092715,0.034158 -0.018395,0.00368 -0.034425,0.00976 -0.053677,0.00976 -0.019209,0 -0.057174,0.00626 -0.073196,-0.00976 -0.01138,-0.011376 -0.01464,-0.034094 -0.01464,-0.048797 0,-0.060713 0.02312,-0.1070342 0.082956,-0.1219936 0.00552,-0.00138 0.032403,-0.011496 0.038101,-0.00488 0.00263,0.00305 0,0.024249 0,0.028801 0,0.00684 0.012159,0.029065 0.00482,0.037332 -0.00172,0.00193 -0.00859,0.015868 -0.012809,0.018175 -0.010767,0.00588 -0.027988,0.00701 -0.035963,0.00106 -0.00167,-0.00124 0,-0.016992 0,-0.018896"
         id="path16524-3" />
    </g>
    <path
       style="fill:none;stroke:#000000;stroke-width:0.065;stroke-linecap:butt;stroke-linejoin:miter;stroke-miterlimit:4;stroke-dasharray:none;stroke-opacity:1"
       d="M 8.450711,6.2778065 8.412249,6.4332815"
       id="path16703" />
    <path
       style="fill:none;stroke:#000000;stroke-width:0.05;stroke-linecap:butt;stroke-linejoin:miter;stroke-miterlimit:4;stroke-dasharray:none;stroke-opacity:1"
       d="m 8.7144095,6.5610002 c 0,0 0.287361,0.00566 0.3616791,-0.1488125"
       id="path16865" />
    <path
       style="fill:none;stroke:#000000;stroke-width:0.051554;stroke-linecap:butt;stroke-linejoin:miter;stroke-miterlimit:4;stroke-dasharray:none;stroke-opacity:1"
       d="m 8.2235072,6.5866973 c 0,0 -0.3542468,0.1933934 -0.2382726,0.3057196 0.1159744,0.112326 0.2246248,0.095701 0.2246248,0.095701"
       id="path16980" />
    <path
       sodipodi:type="star"
       style="fill:#a05a2c;fill-opacity:1"
       id="path1941-1"
       inkscape:flatsided="false"
       sodipodi:sides="3"
       sodipodi:cx="32.723457"
       sodipodi:cy="9.7441492"
       sodipodi:r1="7.6835055"
       sodipodi:r2="4.6110115"
       sodipodi:arg1="2.612846"
       sodipodi:arg2="-2.7280841"
       inkscape:rounded="0"
       inkscape:randomized="0"
       transform="matrix(0.26458333,0,0,0.26458333,-0.18267698,1.0104655)"
       inkscape:transform-center-x="-0.0052325176"
       inkscape:transform-center-y="-0.50369361"
       d="m 26.089211,13.620105 2.411866,-5.7287738 4.182827,-5.8305857 3.755331,4.9531244 2.958022,6.5377271 -6.167197,0.77565 z" />
    <path
       sodipodi:type="star"
       style="fill:url(#pattern17329);fill-opacity:1"
       id="path1941"
       inkscape:flatsided="false"
       sodipodi:sides="3"
       sodipodi:cx="32.723457"
       sodipodi:cy="9.7441492"
       sodipodi:r1="7.6835055"
       sodipodi:r2="4.6110115"
       sodipodi:arg1="2.612846"
       sodipodi:arg2="-2.7280841"
       inkscape:rounded="0"
       inkscape:randomized="0"
       d="m 26.089211,13.620105 2.411866,-5.7287738 4.182827,-5.8305857 3.755331,4.9531244 2.958022,6.5377271 -6.167197,0.77565 z"
       transform="matrix(0.26458333,0,0,0.26458333,-0.18572706,1.0270787)"
       inkscape:transform-center-x="-0.0052325176"
       inkscape:transform-center-y="-0.50369361" />
  </g>
</svg>
